<svg width="140" height="140" viewBox="0 0 140 140" fill="none" xmlns="http://www.w3.org/2000/svg">
<path fill-rule="evenodd" clip-rule="evenodd" d="M69.6667 4L130.333 39.3889V100.75L69.6667 136.138L9 100.75V39.3889L69.6667 4ZM58.7612 37.4027C41.5882 37.4027 27.6667 51.3242 27.6667 68.4972V71.6414C27.6667 88.8145 41.5882 102.736 58.7612 102.736C63.5885 102.736 68.3495 101.612 72.6671 99.4535L76.4204 97.5765L72.2463 89.2287L68.4931 91.1053C65.4715 92.6161 62.1395 93.4027 58.7612 93.4027C46.7428 93.4027 37 83.6599 37 71.6414V68.4972C37 56.4788 46.7428 46.736 58.7612 46.736C62.1395 46.736 65.4715 47.5225 68.4931 49.0334L72.2463 50.91L76.4204 42.562L72.6671 40.6854C68.3495 38.5266 63.5885 37.4027 58.7612 37.4027ZM83.6667 46.736V56.0693H74.3333V65.4027H83.6667V74.736H74.3333V84.0693H83.6667V93.4027H93V84.0693H102.333V93.4027H111.667V84.0693H121V74.736H111.667V65.4027H121V56.0693H111.667V46.736H102.333V56.0693H93V46.736H83.6667Z" fill="#6D287E"/>
</svg>
